<svg viewBox="0 0 781 322" fill="none" xmlns="http://www.w3.org/2000/svg">
  <path d="M139.165 8.85889H199.048V150.554C199.048 195.822 182.952 234.549 150.761 266.735C118.563 298.932 79.8423 315.022 34.5804 315.022H0V8.85889H59.8832V251.765C83.216 245.861 102.267 233.493 117.024 214.655C131.787 195.822 139.165 174.453 139.165 150.554V8.85889Z" fill="currentColor"/>
  <path d="M486.232 274.538C454.742 306.028 416.788 321.77 372.369 321.77C327.951 321.77 290.345 306.028 258.719 274.538C227.094 243.054 211.275 205.235 211.275 161.094C211.275 116.953 227.088 78.7217 258.719 47.2318C290.351 15.7479 328.228 0 372.369 0C416.511 0 454.742 15.7479 486.232 47.2318C517.716 78.7217 533.464 116.676 533.464 161.094C533.464 205.513 517.716 243.054 486.232 274.538ZM443.854 89.6154C424.036 69.7979 400.208 59.8832 372.375 59.8832C344.542 59.8832 320.779 69.792 301.109 89.6154C281.427 109.433 271.589 133.261 271.589 161.094C271.589 188.927 281.427 212.691 301.109 232.367C320.785 252.048 344.548 261.886 372.375 261.886C400.202 261.886 424.036 252.048 443.854 232.367C463.677 212.691 473.586 188.927 473.586 161.094C473.586 133.261 463.677 109.433 443.854 89.6154Z" fill="currentColor"/>
  <path d="M541.048 315.441V9.27765H600.932V255.139H672.623V315.447H541.048V315.441Z" fill="currentColor"/>
  <path d="M781 8.85889V69.1667H740.516V315.447H680.208V69.1609H640.148V8.85889H781Z" fill="currentColor"/>
</svg>
